<svg width="400" height="200" viewBox="0 0 400 200" xmlns="http://www.w3.org/2000/svg">
  <rect width="400" height="200" fill="#F1F5F9" />
  
  <!-- Docker container -->
  <rect x="100" y="50" width="200" height="100" rx="5" fill="#2563EB" opacity="0.1" stroke="#2563EB" stroke-width="2" />
  
  <!-- Go logo -->
  <g transform="translate(150, 65) scale(0.2)">
    <path d="M108.4 67.8c-.9 0-1.7-.7-1.7-1.7 0-.9.7-1.7 1.7-1.7.9 0 1.7.7 1.7 1.7 0 .9-.8 1.7-1.7 1.7zm9.2-1.7c0-.9-.7-1.7-1.7-1.7-.9 0-1.7.7-1.7 1.7 0 .9.7 1.7 1.7 1.7.9 0 1.7-.8 1.7-1.7z" fill="#00ACD7" />
    <path d="M151.5 105.7c-.8.7-1.3 1.1-2 1.5-4.2 1.9-8.5 2-12.6.2-3.1-1.4-5.2-3.9-6.4-6.9-1.9-4.5-1.9-8.9-.1-13.4 2.7-6.7 8.7-10.2 15.8-9.2 4.6.7 9.2 3.5 9.4 10.1h-15.1c-.6 0-1 .4-1 1v5.4c0 .6.4 1 1 1h21.4c.2-9-3-15.9-10.4-19.8-6.2-3.3-12.9-3.7-19.5-1-7.2 3-11.7 8.7-12.8 16.6-1 7.3 1.2 13.6 6.5 18.8 6 5.8 13.3 7.2 21.2 5.2 5.7-1.5 10.1-5.1 13.5-10.1-.5-.2-7.5-3.8-9.2-4.6.5 1.1-.6 3.8-1.7 5.2zm-44.6-19.6H86.7c-.6 0-1 .4-1 1v32.2c0 .6.4 1 1 1h6.2c.6 0 1-.4 1-1v-8.8h13c8.6 0 15.6-5.8 15.6-12.2 0-6.4-7-12.2-15.6-12.2zm.3 17.8H94v-11.2h13.2c4.5 0 8.4 2.6 8.4 5.6 0 3-3.9 5.6-8.4 5.6zm106.8-26.3c-12.1 0-22 9.8-22 21.9 0 12.1 9.9 21.9 22 21.9 12.1 0 22-9.8 22-21.9 0-12.1-9.8-21.9-22-21.9zm0 37c-8.4 0-15.2-6.8-15.2-15.1 0-8.3 6.8-15.1 15.2-15.1s15.3 6.8 15.3 15.1c0 8.3-6.9 15.1-15.3 15.1z" fill="#00ACD7" />
    <path d="M273.5 114.6c-.6.3-.9-.1-.9-.5v-1.2c0-.7-.7-1.5-1.5-1.5h-3.5c-.8 0-1.5.7-1.5 1.5v7.5c0 .8.7 1.5 1.5 1.5h3.5c.8 0 1.5-.7 1.5-1.5v-1c0-.5.4-.7.9-.5l6.9 3c.6.3 1 1 1 1.7v.8c0 .8-.4 1.5-1 1.7l-13.1 5.8c-.6.3-1 .2-1-.3V126c0-.8-.7-1.5-1.5-1.5h-3.5c-.8 0-1.5.7-1.5 1.5v7.5c0 .8.7 1.5 1.5 1.5h3.5c.8 0 1.5-.7 1.5-1.5v-1.9c0-.6.5-.9 1-.7L277 138c.6.3 1.4.3 2 0l13.9-6c.6-.3 1-1 1-1.7v-7.8c0-.7-.4-1.5-1-1.7l-13.9-6c-.6-.3-1.4-.3-2 0l-3.5 1.8z" fill="#00ACD7" />
  </g>
  
  <!-- Dockerfile text -->
  <text x="200" y="160" font-family="Arial, sans-serif" font-size="16" text-anchor="middle" fill="#1E40AF" font-weight="bold">Go应用模板</text>
</svg> 