<svg width="400" height="200" viewBox="0 0 400 200" xmlns="http://www.w3.org/2000/svg">
  <rect width="400" height="200" fill="#F1F5F9" />
  
  <!-- Docker container -->
  <rect x="100" y="50" width="200" height="100" rx="5" fill="#2563EB" opacity="0.1" stroke="#2563EB" stroke-width="2" />
  
  <!-- Java logo -->
  <g transform="translate(160, 65) scale(0.09)">
    <path d="M153.68,361.48s-11.95,7.33,9.26,9.92c25.66,2.73,40.8,2.33,70.47-2.9,0,0,8.03,4.86,19.33,9.19-68.67,29.33-155.54-1.68-99.07-16.21" fill="#EA2D2E"/>
    <path d="M145.19,310.57s-13.53,9.81,7.99,11.89c27.87,2.73,50.37,2.97,88.75-4.02,0,0,5.35,5.54,13.99,8.6-81.06,23.76-171.41,2.04-110.74-16.47" fill="#EA2D2E"/>
    <path d="M242.92,220.86c16.21,18.19-4.47,34.6-4.47,34.6s40.84-20.61,22.14-46.27c-17.49-24.06-30.99-36.19,41.85-77.52,0-0.02-114.3,28.24-59.52,89.19" fill="#EA2D2E"/>
    <path d="M325.37,374.9s9.26,7.35-9.68,13.29c-36.78,11.12-153.09,14.48-185.1,0.46-11.64-5.06,9.76-12.12,16.21-13.55,6.85-1.53,10.67-1.25,10.67-1.25-12.26-8.29-80.18,16.9-34.2,24.31,125.84,20.17,228.91-9.08,202.09-23.26" fill="#EA2D2E"/>
    <path d="M156.72,253.55s-56.76,13.35-20.11,18.27c15.48,2.03,46.34,1.53,75.11-0.78,23.47-1.93,47.01-6.02,47.01-6.02s-8.22,3.54-14.48,7.61c-58.07,15.21-169.89,8.15-137.89-7.39,27.31-12.86,50.37-11.71,50.37-11.71" fill="#EA2D2E"/>
    <path d="M272.82,324.41c58.95-30.15,31.72-59.2,12.75-55.37-4.66,0.95-6.76,1.81-6.76,1.81s1.71-2.65,5.06-3.83c37.49-13.15,66.74,38.71-12.23,59.36,0-0.02,0.93-0.84,1.18-1.97" fill="#EA2D2E"/>
    <path d="M221.62,0s32.74,32.37-31.17,82.22c-51.19,39.99-11.68,62.75-0.02,88.73-29.88-26.94-51.9-50.53-37.16-72.63,21.57-32.35,81.7-48.01,68.34-98.32" fill="#EA2D2E"/>
    <path d="M160.92,435.79c56.58,3.64,143.67-1.95,145.91-28.95,0,0-3.95,10.31-46.81,18.5-48.41,9.28-108.13,8.16-143.54,2.24,0,0.08,7.31,6.07,44.44,8.22" fill="#EA2D2E"/>
  </g>
  
  <!-- Spring logo -->
  <g transform="translate(240, 85) scale(0.1)">
    <path d="M160.414,0C123.711,6.631,106.839,25.758,72.271,54.685C37.704,83.611,0,86.535,0,86.535  s28.824,105.55,109.329,105.55C188.473,192.084,245.402,0,160.414,0z" fill="#68BD45"/>
    <path d="M125.531,145.793l-6.146-17.61l19.971,0.075l-8.631,17.917  C129.037,147.702,127.284,146.934,125.531,145.793z" fill="#68BD45"/>
    <path d="M141.536,18.75c0,0,60.666,20.28,41.841,87.52c-18.824,67.239-59.14,62.589-70.424,60.987  c-11.284-1.601-21.429-6.861-21.429-6.861s10.854,17.854,29.546,23.063c18.692,5.21,55.058-7.522,73.8-39.537  C214.113,111.906,204.238,31.901,141.536,18.75z" fill="#68BD45"/>
  </g>
  
  <!-- Dockerfile text -->
  <text x="200" y="160" font-family="Arial, sans-serif" font-size="16" text-anchor="middle" fill="#1E40AF" font-weight="bold">Java Spring Boot模板</text>
</svg> 