<svg width="400" height="200" viewBox="0 0 400 200" xmlns="http://www.w3.org/2000/svg">
  <rect width="400" height="200" fill="#F1F5F9" />
  
  <!-- Docker containers with arrow -->
  <rect x="75" y="60" width="120" height="70" rx="5" fill="#2563EB" opacity="0.1" stroke="#2563EB" stroke-width="2" />
  <rect x="225" y="60" width="120" height="70" rx="5" fill="#2563EB" opacity="0.2" stroke="#2563EB" stroke-width="2" />
  
  <!-- Arrow pointing from first to second container -->
  <path d="M205 95 L215 95 L215 85 L230 95 L215 105 L215 95" fill="#2563EB" />
  
  <!-- Docker logo in first container -->
  <g transform="translate(115, 80) scale(0.025)">
    <path d="M1047.3,357.5c-4.8-3.7-16.3-5-24.9-3.4c-1.1-8.4-6.1-15.7-15-22.2L999,328   l-5.4,6.4c-6.6,8.5-10.2,20.3-9.1,31.5c0.4,3.9,1.7,10.9,6.1,17c-4.1,2.2-12.2,5.1-23,2.5c-13.5-10.4-14.4-32.1-14.4-33   c-0.2-3-2.6-5.5-5.6-5.5h-33.3c-3,0-5.4,2.4-5.4,5.4v116.3c0,3,2.4,5.4,5.4,5.4h24.4c3,0,5.4-2.4,5.4-5.4v-46.1h37.3l0.4,0.9   c6.1,16.3,16.9,29.4,32.4,39.1c20.2,12.5,39.5,12.6,47.6,12.6c8.2,0,15-1,18.9-1.9l2.4-0.5l-1.8-9.3c13.5-1.1,26-4.2,35.7-14.2   l0,0c16.6-15.5,26.2-38.6,24.4-58.5c-1-11.5-4.7-21.9-10.7-30.2C1071,359.7,1058.3,358.1,1047.3,357.5z" fill="#2496ED" />
    <path d="M1080.4,402.3c-7.5-9.8-22.6-9.2-29.8-7c-1.8-12.8-9.5-23.9-23.1-34l-8.8-6.1l-5.8,8.9   c-7.2,11.5-11.1,27.6-9.9,42.7c0.5,5,2.1,13.8,7.9,21.7c-5.8,3.4-17.9,7.5-33.4,1.7c-22.3-15.8-20.4-54.9-20.4-55c0-1-0.7-1.9-1.6-1.9   h-123c-1,0-1.7,0.9-1.7,1.9v209.5c0,1,0.7,1.9,1.7,1.9h91.3c0.9,0,1.7-0.9,1.7-1.9v-131.9h36.2v131.9c0,1,0.7,1.9,1.7,1.9h91.3   c0.9,0,1.7-0.9,1.7-1.9V470.1c13.3,2.6,42.1,3.7,53.6-25.6l3.3-15l-13.7-6.8C1093.9,417.7,1088.1,409.7,1080.4,402.3z" fill="#2496ED" />
  </g>
  
  <!-- Docker logo in second container -->
  <g transform="translate(265, 80) scale(0.025)">
    <path d="M1047.3,357.5c-4.8-3.7-16.3-5-24.9-3.4c-1.1-8.4-6.1-15.7-15-22.2L999,328   l-5.4,6.4c-6.6,8.5-10.2,20.3-9.1,31.5c0.4,3.9,1.7,10.9,6.1,17c-4.1,2.2-12.2,5.1-23,2.5c-13.5-10.4-14.4-32.1-14.4-33   c-0.2-3-2.6-5.5-5.6-5.5h-33.3c-3,0-5.4,2.4-5.4,5.4v116.3c0,3,2.4,5.4,5.4,5.4h24.4c3,0,5.4-2.4,5.4-5.4v-46.1h37.3l0.4,0.9   c6.1,16.3,16.9,29.4,32.4,39.1c20.2,12.5,39.5,12.6,47.6,12.6c8.2,0,15-1,18.9-1.9l2.4-0.5l-1.8-9.3c13.5-1.1,26-4.2,35.7-14.2   l0,0c16.6-15.5,26.2-38.6,24.4-58.5c-1-11.5-4.7-21.9-10.7-30.2C1071,359.7,1058.3,358.1,1047.3,357.5z" fill="#2496ED" />
    <path d="M1080.4,402.3c-7.5-9.8-22.6-9.2-29.8-7c-1.8-12.8-9.5-23.9-23.1-34l-8.8-6.1l-5.8,8.9   c-7.2,11.5-11.1,27.6-9.9,42.7c0.5,5,2.1,13.8,7.9,21.7c-5.8,3.4-17.9,7.5-33.4,1.7c-22.3-15.8-20.4-54.9-20.4-55c0-1-0.7-1.9-1.6-1.9   h-123c-1,0-1.7,0.9-1.7,1.9v209.5c0,1,0.7,1.9,1.7,1.9h91.3c0.9,0,1.7-0.9,1.7-1.9v-131.9h36.2v131.9c0,1,0.7,1.9,1.7,1.9h91.3   c0.9,0,1.7-0.9,1.7-1.9V470.1c13.3,2.6,42.1,3.7,53.6-25.6l3.3-15l-13.7-6.8C1093.9,417.7,1088.1,409.7,1080.4,402.3z" fill="#2496ED" />
  </g>
  
  <!-- Stage labels -->
  <text x="135" y="55" font-family="Arial, sans-serif" font-size="12" text-anchor="middle" fill="#1E40AF">构建阶段</text>
  <text x="285" y="55" font-family="Arial, sans-serif" font-size="12" text-anchor="middle" fill="#1E40AF">生产阶段</text>
  
  <!-- Dockerfile text -->
  <text x="200" y="160" font-family="Arial, sans-serif" font-size="16" text-anchor="middle" fill="#1E40AF" font-weight="bold">多阶段构建模板</text>
</svg> 