<svg width="400" height="200" viewBox="0 0 400 200" xmlns="http://www.w3.org/2000/svg">
  <rect width="400" height="200" fill="#F1F5F9" />
  
  <!-- Docker container -->
  <rect x="100" y="50" width="200" height="100" rx="5" fill="#2563EB" opacity="0.1" stroke="#2563EB" stroke-width="2" />
  
  <!-- Nginx logo -->
  <g transform="translate(150, 70) scale(0.5)">
    <path d="M96 64.01c-0.52 0-1.030 0.209-1.411 0.589l-56.060 56c-0.755 0.756-0.824 1.943-0.157 2.773l46.25 57.5c0.391 0.485 0.978 0.768 1.599 0.768h64.5c0.665 0 1.286-0.327 1.661-0.878l44.896-65.5c0.551-0.803 0.446-1.893-0.249-2.589l-56.060-48c-0.391-0.335-0.895-0.516-1.411-0.516h-43.52zM96 96h64v32h-64v-32z" fill="#009639"/>
  </g>
  
  <!-- HTML/CSS Icons -->
  <g transform="translate(230, 80) scale(0.03)">
    <path d="M71.05 23.68c-26.06 0-47.27 21.22-47.27 47.27s21.22 47.27 47.27 47.27 47.27-21.22 47.27-47.27-21.22-47.27-47.27-47.27zm-.07 4.2c3.67 0 6.65 2.33 7.05 5.9l-13.97.03v.02c-5 .02-9.82 1.17-14.21 3.4-1.68.86-2.46 2.9-1.61 4.61.84 1.71 2.88 2.42 4.59 1.56 3.22-1.62 6.65-2.49 10.31-2.56l13.96-.03c-.06 3.69-3.18 6.66-6.9 6.67l-4.81.13c-16.76.47-31.26 12.67-34.35 29.16-3.51 18.7 9.66 36.91 28.37 40.44 18.66 3.5 36.9-9.67 40.42-28.36 2.47-13.23-3.27-26.53-14.08-33.93l.02-.01c-1.77-1.19-2.24-3.59-1.06-5.35 1.19-1.76 3.59-2.24 5.36-1.05l-.03-.02c12.84 8.78 20.21 24.32 17.32 40.28-3.99 21.22-24.29 35.22-45.52 31.2-21.24-4.02-35.24-24.31-31.21-45.54 3.06-16.32 15.15-28.67 30.6-32.2v-.02c2.19-.54 4.31 1.02 4.81 3.32.5 2.3-1.04 4.29-3.32 4.78v.02c-11.76 2.69-21.08 12.21-23.56 24.93-3.04 16.13 7.67 31.81 23.81 34.86 16.07 3.04 31.81-7.66 34.88-23.79 2.09-11.16-2.83-22.13-11.87-28.6-1.58-1.09-2-3.03-.95-4.61 1.05-1.59 3.11-2.01 4.7-.95v.02c2.51 1.72 4.73 3.8 6.63 6.16 1.8 2.23 1.48 5.52-.73 7.33-2.21 1.81-5.51 1.48-7.32-.73-1.28-1.58-2.77-2.98-4.42-4.14-.1-.08-.22-.15-.33-.22-.15-.19-1.41.5-1.3.68.64.87 1.21 1.77 1.76 2.71 3.91 6.72 5.45 14.94 3.5 23.42-2.82 12.34-14.9 20.42-27.76 20.42-.53 0-1.08-.01-1.61-.05-14.73-1.03-25.98-13.45-25.98-27.95 0-9.15 4.42-17.38 11.23-22.55 1.22-.88 2.17-2.07 2.77-3.45.39-.98.59-2.05.59-3.15 0-4.87-3.95-8.81-8.81-8.81-4.87 0-8.81 3.95-8.81 8.81 0 1.56.41 3.02 1.12 4.3.14.21.24.44.31.69.09.77.38 1.52.85 2.12 4.95 6.32 7.69 14.25 7.69 22.33 0 9.95-3.99 18.97-10.45 25.56-1.61 1.65-4.27 1.69-5.91.07-1.64-1.62-1.67-4.28-.07-5.93 5-5.12 8.11-12.1 8.11-19.8 0-6.35-2.09-12.23-5.65-16.98-2.02-2.7-3.23-6.05-3.23-9.67 0-8.83 7.16-16 16-16l-.01.01zm22.19 30.76c5.88 0 11.68 1.5 16.8 4.31 1.86 1.04 2.55 3.35 1.53 5.21-1.01 1.85-3.33 2.55-5.21 1.53-3.81-2.11-8.07-3.22-12.29-3.22-14.21 0-25.84 11.64-25.84 25.85 0 14.21 11.64 25.84 25.84 25.84 6.8 0 13.27-2.67 18.11-7.51 1.58-1.56 4.14-1.56 5.71.02 1.58 1.58 1.56 4.13-.02 5.71-6.47 6.45-15.05 9.99-23.8 9.99-18.61 0-33.85-15.24-33.85-33.85 0-18.61 15.24-33.85 33.85-33.85l.02-.03zm-1.91 11.31c1.81 0 3.46.73 4.66 1.93 1.2 1.19 1.94 2.85 1.94 4.66 0 1.81-.74 3.46-1.94 4.67-1.2 1.19-2.84 1.93-4.66 1.93s-3.46-.73-4.66-1.93-1.93-2.85-1.93-4.67c0-1.81.73-3.46 1.93-4.66 1.2-1.2 2.85-1.94 4.66-1.94v.01z" fill="#FC490B" />
  </g>
  
  <!-- Dockerfile text -->
  <text x="200" y="160" font-family="Arial, sans-serif" font-size="16" text-anchor="middle" fill="#1E40AF" font-weight="bold">Nginx静态网站模板</text>
</svg> 