<svg width="400" height="200" viewBox="0 0 400 200" xmlns="http://www.w3.org/2000/svg">
  <rect width="400" height="200" fill="#F1F5F9" />
  
  <!-- Docker container -->
  <rect x="100" y="50" width="200" height="100" rx="5" fill="#2563EB" opacity="0.1" stroke="#2563EB" stroke-width="2" />
  
  <!-- Python logo -->
  <g transform="translate(150, 60) scale(0.3)">
    <path d="M116.948 0c-7.506 0-14.68.808-20.992 2.129-18.637 3.89-22.03 12.036-22.03 27.055v19.844h44.058v5.58H53.592c-15.142 0-28.396 9.09-32.55 26.379-4.795 19.828-5.01 32.188 0 52.936 3.716 15.434 12.583 26.379 27.725 26.379h17.94v-23.766c0-17.17 14.858-32.29 32.554-32.29h44.014c14.492 0 26.05-11.937 26.05-26.447V29.183c0-14.101-11.892-24.67-26.05-27.055C136.675.82 124.454 0 116.948 0zM89.331 16.148c4.546 0 8.264 3.778 8.264 8.43 0 4.634-3.718 8.388-8.264 8.388-4.564 0-8.264-3.754-8.264-8.389 0-4.65 3.7-8.429 8.264-8.429z" fill="#366994" />
    <path d="M167.533 54.608v23.078c0 17.9-15.168 32.96-32.554 32.96h-44.014c-14.264 0-26.05 12.212-26.05 26.447v49.6c0 14.102 12.26 22.38 26.05 26.446 16.518 4.869 32.374 5.752 44.014 0 7.726-3.806 15.212-11.452 15.212-26.446v-19.844h-44.014v-5.58h66.066c15.142 0 20.778-10.566 26.049-26.38 5.46-16.328 5.223-32.035 0-52.935-3.75-15.085-10.92-26.379-26.05-26.379h-4.709zm-26.49 125.53c4.564 0 8.265 3.754 8.265 8.388 0 4.652-3.701 8.43-8.265 8.43-4.546 0-8.264-3.778-8.264-8.43 0-4.634 3.718-8.388 8.264-8.388z" fill="#366994" />
  </g>
  
  <!-- Dockerfile text -->
  <text x="200" y="160" font-family="Arial, sans-serif" font-size="16" text-anchor="middle" fill="#1E40AF" font-weight="bold">Python Web应用模板</text>
</svg> 